<svg width="153" height="11" viewBox="0 0 153 11" fill="none" xmlns="http://www.w3.org/2000/svg">
<path d="M140.167 9.12336C140.512 9.4432 139.359 9.29377 140.125 9.75507C139.965 9.8009 139.805 9.84818 139.645 9.89459C139.604 9.70643 139.563 9.51835 139.522 9.3293C139.737 9.25972 139.951 9.19078 140.167 9.12243C140.167 9.12274 140.167 9.12305 140.167 9.12336ZM140.46 6.74989C140.263 7.28734 139.639 7.45482 140.313 7.93007C140.367 7.74345 140.422 7.5574 140.475 7.37194C140.709 7.50881 140.945 7.64364 141.179 7.77579C141.263 7.70371 141.347 7.63191 141.432 7.56127C141.539 7.87207 141.645 8.18174 141.752 8.48926C141.657 8.44824 141.561 8.40621 141.465 8.36465C141.089 8.63699 140.754 8.72603 140.243 8.80127C140.288 8.87495 140.333 8.94776 140.378 9.02105C140.119 8.90683 139.859 8.79029 139.601 8.67207C139.825 8.53245 140.076 8.3791 140.284 8.25217C139.951 7.76161 139.365 8.0613 139.059 8.18238C138.644 8.34614 138.738 8.09604 138.429 8.21141C138.38 8.22954 138.374 8.42423 138.277 8.43176C137.786 8.46966 136.831 8.40209 137.389 7.91862C138.198 7.94916 138.888 7.56553 139.681 7.67374C139.471 7.1668 139.889 6.98084 140.46 6.74989ZM125.604 8.96743C125.849 8.64786 126.348 8.75717 126.686 8.95605C126.687 8.95603 126.687 8.95602 126.688 8.956C126.762 9.0002 126.93 9.39847 126.688 9.3928C126.292 9.38313 126.1 8.74487 125.892 9.19173C125.799 9.11381 125.701 9.0448 125.604 8.96743ZM124.743 9.03879C124.501 8.88688 124.611 8.38686 124.915 8.51167C124.915 8.51127 124.915 8.51088 124.915 8.51049C125.042 8.56243 124.793 8.95984 125.248 8.5498C125.341 8.85357 125.432 9.12867 125.524 9.42043C125.413 9.43025 125.311 9.44274 125.194 9.45183C125.273 8.94406 124.986 9.1889 124.743 9.03879ZM136.979 8.16474C136.941 8.54634 137.101 8.53817 137.373 8.7873C137.116 8.78731 136.859 8.78626 136.603 8.78578C136.729 8.57718 136.853 8.37071 136.979 8.16474ZM143.019 7.98809C143.02 7.98807 143.02 7.98806 143.021 7.98804C143.105 7.93127 143.189 7.87458 143.272 7.81914C143.323 7.93752 143.373 8.05501 143.423 8.17263C143.721 8.04686 144.02 7.92311 144.317 7.8008C144.281 8.16123 143.747 8.12558 143.453 8.39535C143.015 8.3069 142.804 8.10057 142.776 7.78689C142.857 7.85403 142.937 7.92171 143.019 7.98809ZM71.4398 6.96099C71.3403 7.16421 71.242 7.36779 71.1425 7.57141C71.2748 7.66345 71.4061 7.73346 71.5396 7.83997C71.8886 6.95626 71.9214 7.73631 72.3787 7.67928C73.7803 7.50261 73.4085 6.15086 74.6744 8.13006C73.658 8.04323 74.0486 8.97407 73.4359 9.70296C73.3089 9.15443 73.9161 7.91153 73.5047 7.65742C72.7957 8.24259 72.1139 8.79213 71.3273 9.17843C71.3503 9.27382 71.3731 9.36953 71.3961 9.46488C71.5209 9.40315 71.6446 9.34113 71.7693 9.27954C71.6347 9.53665 71.5032 9.79185 71.3664 10.0526C71.5393 9.46941 71.0986 9.79953 71.1576 9.13069C71.1839 8.83296 71.3786 8.41881 71.4935 8.13425C71.197 7.98191 70.8929 7.84212 70.5932 7.69329C70.7485 7.45509 70.9037 7.21698 71.0579 6.9795C71.1848 6.97176 71.3107 6.96612 71.4375 6.9584C71.4383 6.95926 71.4391 6.96013 71.4398 6.96099ZM7.62621 8.58608C8.00264 8.19201 8.68667 8.16027 9.04668 8.71446C8.57287 8.67305 8.10002 8.63083 7.62621 8.58608ZM142.747 7.52843C142.79 7.58672 142.831 7.64426 142.874 7.70224C142.685 7.8187 142.496 7.93572 142.308 8.05472C142.272 7.88243 142.235 7.70975 142.198 7.53747C142.381 7.53425 142.564 7.53173 142.747 7.52843ZM130.708 8.1091C130.846 8.09205 130.858 8.09873 131.029 8.12365C131.029 8.12348 131.029 8.12331 131.029 8.12313C131.097 8.13261 131.665 8.23742 131.602 8.40067C131.32 8.41341 131.019 8.42132 130.73 8.43146C130.721 8.32411 130.719 8.21736 130.708 8.1091ZM134.031 8.09727C134.032 8.0976 134.032 8.09794 134.032 8.09827C134.135 8.11853 134.233 8.16318 134.339 8.16824C133.957 8.42594 133.896 7.98885 133.55 8.12451C133.203 8.26124 132.989 8.51837 132.694 7.91332C132.804 7.81812 132.921 7.68366 133.034 7.57436C133.527 7.8063 133.659 7.57201 134.054 7.32721C134.046 7.58439 134.039 7.83991 134.031 8.09727ZM77.6803 8.94024C77.7744 8.45058 77.8794 8.92884 77.8903 8.9344C77.8901 8.93496 77.8899 8.93553 77.8897 8.9361C78.7232 8.47459 77.7812 9.2078 78.5678 9.27352C78.4508 9.39678 78.3357 9.52699 78.2197 9.652C78.0403 9.41952 77.8554 9.15518 77.6803 8.94024ZM104.762 8.55515C104.77 8.67632 104.779 8.7977 104.786 8.91883C104.314 8.90083 104.193 9.38445 103.8 8.95581C104.121 8.82014 104.441 8.6863 104.762 8.5537C104.762 8.55418 104.762 8.55467 104.762 8.55515ZM128.326 7.49423C128.85 7.3034 129.237 7.22143 129.741 7.49164C129.741 7.492 129.742 7.49235 129.742 7.49271C129.771 7.50927 129.631 7.70597 129.668 7.75393C129.772 7.72243 129.88 7.67545 129.984 7.63863C129.999 7.79267 130.012 7.9466 130.026 8.09953C129.731 8.06458 129.435 8.02907 129.139 7.99294C129.183 8.08312 129.228 8.1723 129.271 8.26214C129.02 8.31705 128.769 8.37224 128.517 8.4281C128.605 8.16677 128.692 7.90634 128.779 7.64599C128.628 7.59541 128.476 7.54647 128.326 7.49423ZM96.8922 7.29664C96.9753 7.43606 96.8214 7.67279 96.9505 7.79208C97.0796 7.90962 97.3177 7.6457 97.2619 8.04126C97.088 8.09662 96.9054 8.16009 96.7283 8.21848C97.2984 8.92335 97.8671 8.26901 97.8759 9.14493C97.3288 8.92931 96.8789 9.04248 96.3493 9.29882C96.3712 8.59507 96.9009 7.98282 96.5674 7.32846C96.6746 7.31846 96.7871 7.30423 96.891 7.29818C96.8914 7.29767 96.8918 7.29716 96.8922 7.29664ZM150.405 3.07566C150.728 3.12565 151.471 3.05337 151.88 3.27443C151.981 3.33023 152.316 3.94846 152.314 4.02512C152.304 4.28682 151.895 4.30445 152.333 4.49644C152.186 4.49161 152.043 4.49517 151.896 4.49352C151.922 4.6736 151.949 4.85279 151.974 5.03145C152.152 5.00976 152.331 4.98836 152.509 4.96692C152.518 5.02542 152.526 5.084 152.535 5.1424C151.894 5.12684 152.273 5.36225 151.94 5.56902C152.246 5.68083 152.555 5.78939 152.86 5.89564C152.684 5.88197 152.476 5.87129 152.321 5.855C152.3 6.15501 152.671 6.08301 152.734 6.13794C153.092 6.4461 151.27 6.29829 151.121 6.7532C151.412 6.79785 151.718 6.83979 152.015 6.88123C151.93 6.93747 151.843 6.99415 151.758 7.05117C151.083 6.76317 150.326 6.66311 149.539 6.4703C149.468 6.48442 149.397 6.49898 149.327 6.51259C149.348 6.65909 149.367 6.80481 149.388 6.95085C149.281 6.97057 149.172 6.99033 149.065 7.01032C149.381 6.51778 148.943 6.53553 148.415 6.2364C148.696 6.06194 149.043 6.16642 149.019 5.84747C148.054 6.09327 146.924 5.72846 145.985 6.02003C145.752 6.09324 145.753 6.53836 145.205 6.50317C145.224 6.45347 145.227 6.36409 145.239 6.29899C144.291 6.51911 143.716 6.66666 142.731 6.44357C142.788 6.61387 142.844 6.7843 142.901 6.9534C143.11 6.86479 143.319 6.77593 143.527 6.68954C143.669 6.96439 143.459 7.09076 144.083 7.07422C144.594 7.06091 144.29 6.94717 144.429 6.86383C144.617 6.75102 144.782 6.96324 144.984 6.83777C145.141 6.74215 144.972 6.5233 145.38 6.57458C145.216 6.86112 145.048 7.16022 144.883 7.45672C144.783 7.39495 144.685 7.33173 144.585 7.26838C144.686 7.18827 144.785 7.10972 144.885 7.03063C144.531 7.17646 144.196 7.31687 143.829 7.47439C143.949 7.04588 143.57 7.21414 143.364 7.27045C143.044 7.35821 143.318 7.05468 143.108 7.1089C142.898 7.16323 142.671 7.50434 142.292 7.44365C142.495 7.24282 142.218 7.07435 142.272 6.89217C142.325 6.71008 142.727 6.66659 142.341 6.47368C141.599 6.63198 142.404 7.31054 141.903 7.43398C141.302 7.58945 141.158 6.44412 141.338 6.1974C141.479 6.00377 141.965 6.04275 142.107 5.85358C141.237 5.50354 141.229 6.18779 141.081 6.32453C140.54 6.82158 140.903 5.50028 140.263 5.97749C140.275 5.72838 140.285 5.50446 140.297 5.26585C140.186 5.30958 140.113 5.36909 139.98 5.40364C140.373 5.89482 140.051 5.87049 139.886 5.8712C139.625 5.87207 140.028 6.11157 139.959 6.17268C139.773 6.3377 139.478 6.26476 139.659 6.47998C139.578 6.37994 139.49 6.27917 139.407 6.17899C139.103 6.30151 138.388 7.38461 139.068 7.15536C139.005 7.55186 138.785 7.36796 138.613 7.31091C138.441 7.25407 138.444 7.50854 138.293 7.4654C137.693 7.29135 138.086 6.84101 138.181 6.49872C137.387 6.74363 138.164 6.89034 137.021 7.06991C136.91 7.35855 137.439 7.64763 136.999 7.82496C136.918 7.33206 136.594 6.98175 135.963 6.82173C135.901 6.93857 135.84 7.0568 135.779 7.17437C135.434 6.71336 135.61 6.21784 134.972 6.81058C135.315 5.72785 135.079 6.42276 134.508 5.9805C134.392 5.89061 134.66 5.66608 134.498 5.55048C134.425 5.49798 134.247 5.6679 134.067 5.53398C133.98 5.46861 133.571 5.03738 133.287 5.23604C133.495 5.77438 132.957 6.23384 133.418 6.676C132.565 6.57506 131.968 6.83583 132.924 6.09228C132.707 5.92858 132.49 5.7639 132.274 5.59777C132.123 5.72708 131.97 5.85627 131.818 5.9865C131.795 5.534 131.818 5.40675 131.224 5.48139C131.482 5.37588 131.739 5.26983 131.998 5.16598C132.007 5.07495 132.043 4.98086 132.034 4.89234C131.717 5.05957 130.823 5.12246 130.606 5.24269C130.389 5.36301 130.808 5.40104 130.745 5.51901C130.226 6.49748 130.267 5.77501 129.894 5.94249C129.675 6.04313 130.198 6.15225 130.081 6.19494C129.647 6.35356 129.445 5.82496 129.06 5.81588C129.197 6.11903 129.333 6.42509 129.466 6.72754C129.062 6.71554 128.612 6.71636 128.237 6.81852C128.09 6.85848 128.201 7.08521 128.177 7.10073C128.057 7.1805 127.572 7.31331 127.52 7.31532C127.133 7.32402 127.122 7.00399 126.746 6.99085C126.894 6.96176 127.032 6.93561 127.177 6.90782C127.242 6.38819 127.309 5.86998 127.375 5.35218C127.006 5.31096 126.637 5.26996 126.268 5.22765C126.538 5.40605 126.809 5.58175 127.079 5.75638C126.657 6.17437 126.235 6.60054 125.812 7.0338C125.592 6.77435 125.373 6.51267 125.153 6.24869C124.556 6.31875 124.676 7.4024 124.393 6.45539C124.217 6.53656 124.041 6.61822 123.865 6.69944C123.89 6.56282 123.915 6.42605 123.94 6.28968C123.728 6.37411 123.515 6.45864 123.303 6.54541C123.526 7.03062 123.745 7.53712 123.966 8.00011C123.548 8.11564 123.54 7.70448 123.478 7.60281C123.313 7.33318 122.985 7.70762 122.854 7.45653C122.809 7.36969 123.219 7.09141 123.077 6.77911C123.05 6.72051 122.502 5.56114 122.152 5.82716C122.159 6.03882 122.186 6.29822 122.2 6.52819C121.73 6.66131 121.49 5.54893 121.552 5.23684C121.301 5.45282 120.935 5.46885 120.884 5.81246C120.756 5.82047 120.629 5.82808 120.501 5.83617C120.634 4.99702 120.1 5.14386 120.065 5.87121C120.285 5.88968 120.505 5.90895 120.725 5.92715C120.559 6.81125 121.227 7.34415 119.837 6.53057C119.571 6.06704 120.309 6.59181 120.093 6.24545C119.716 6.04367 119.363 6.21436 119.005 5.88783C118.56 5.47862 119.108 5.08536 118.07 5.60216C120.358 6.91178 117.756 6.48553 116.682 6.9102C116.386 5.59814 115.479 5.16131 114.229 5.55475C114.36 5.93122 114.753 5.73865 114.979 5.86235C115.206 5.98542 114.961 6.20685 115.243 6.3801C115.525 6.55325 116.124 6.7847 116.41 7.04118C116.168 7.25056 114.974 7.76397 115.763 7.1576C115.174 6.7973 114.897 6.41759 114.166 6.34966C113.948 6.93758 113.964 7.30426 113.251 7.33032C113.673 6.50521 112.863 5.93644 113.042 5.08325C113.547 5.28598 113.264 6.10976 113.556 6.50378C113.586 6.54286 114.057 6.33508 114.166 6.34966C113.691 5.61508 113.527 5.33358 113.819 4.45938C113.483 4.53113 113.275 4.41705 113.244 4.83847C113.174 4.65466 113.103 4.47031 113.035 4.28578C112.925 4.28845 112.827 4.30378 112.711 4.29841C112.871 4.94022 112.561 4.54179 112.341 4.82978C112.121 5.11905 112.416 5.62791 111.812 5.6324C112.014 5.78418 112.198 5.91372 112.393 6.05588C112.003 6.22088 111.612 6.38879 111.223 6.55745C111.496 6.95345 112.089 7.53132 112.073 8.04785C111.894 7.85547 111.279 8.21117 111.212 8.22732C110.951 8.28596 111.093 7.95377 111.074 7.94608C110.664 7.79278 110.327 7.91132 110.172 7.41034C109.865 7.64135 109.633 7.51517 109.307 7.53213C109.127 7.54148 109.162 7.914 109.057 7.84486C108.359 7.38303 109.024 6.88389 107.677 7.829C107.84 8.08967 108.001 8.3553 108.164 8.61611C108.012 8.71834 107.861 8.82148 107.709 8.92447C107.607 8.87913 107.506 8.83328 107.405 8.78768C107.407 8.21577 107.409 7.64268 107.412 7.07083C107.3 7.04062 107.188 7.01121 107.076 6.98081C107.268 6.92282 107.46 6.86516 107.651 6.8077C107.669 6.70718 107.685 6.60666 107.703 6.50622C107.418 6.35183 107.135 6.19489 106.85 6.03701C106.845 6.23688 106.839 6.43818 106.834 6.6381C106.192 6.36295 106.177 6.18933 105.568 6.74827C105.098 6.74384 104.716 7.59579 104.445 7.95938C104.347 7.84662 104.25 7.73213 104.151 7.61885C104.089 7.78955 104.026 7.95978 103.964 8.13098C103.84 7.89623 103.715 7.66075 103.591 7.42585C103.522 7.9655 103.486 8.13543 103.969 8.31562C103.804 8.9869 102.954 8.71146 102.608 8.49016C102.346 8.32259 102.637 7.7539 102.604 7.68615C102.495 7.45455 102.062 7.66059 101.972 7.62304C101.588 7.46582 101.319 7.4969 100.972 7.37426C100.904 7.34981 100.715 6.9894 100.699 6.97803C100.575 6.91703 100.267 6.74226 100.232 6.73727C98.4255 6.47476 100.355 8.04395 98.6759 7.89665C98.7262 8.10624 98.7725 8.31426 98.8217 8.52343C98.6949 8.53842 98.5666 8.55282 98.4398 8.56785C98.2789 8.39457 98.4735 8.07101 98.154 8.33444C98.1748 8.07412 98.1957 7.81379 98.2176 7.55497C98.0786 7.69664 97.9447 7.83751 97.8024 7.98C97.5792 7.07907 96.7643 6.8764 96.8222 5.80667C96.8419 5.44236 97.4196 5.0739 97.1143 4.68418C96.8663 4.60554 97.0342 5.04088 96.933 5.0629C96.202 5.21712 96.2445 4.60627 95.9458 4.76669C95.8988 5.02872 95.8493 5.29613 95.8012 5.56126C95.6885 5.48379 95.5756 5.40613 95.4618 5.32831C95.4356 5.5051 95.4082 5.68216 95.3819 5.85913C95.4881 5.87107 95.6076 5.88317 95.705 5.89505C95.5692 6.57796 94.3221 6.89329 94.7976 6.30463C94.9913 6.06609 95.346 6.1678 95.1219 5.35614C94.7881 5.47149 94.4095 5.59003 94.0583 5.70692C94.0473 5.53105 94.0371 5.35482 94.0262 5.17887C93.5528 5.29036 93.9833 5.99663 93.9825 6.37295C93.8742 6.38374 93.7648 6.39324 93.6565 6.40407C93.6106 6.23335 93.567 6.05451 93.5189 5.8888C93.5145 6.16072 93.4538 6.79357 93.1311 6.55965C92.9236 6.40682 93.2504 5.71851 92.8547 5.81346C92.8843 6.23989 93.0272 6.75756 92.5865 6.89725C92.5427 6.45199 92.4822 6.04373 92.4483 5.57504C91.9002 6.00304 91.6508 5.3108 91.0074 5.81071C90.5993 6.12626 90.0402 7.26503 89.7765 5.51462C89.4779 5.46754 89.5726 5.90428 89.4843 6.00237C89.0674 6.46767 88.7573 5.63438 88.6796 5.5845C88.1841 5.26776 87.962 5.55706 87.5583 5.15904C87.5802 5.48721 87.5921 5.79772 87.6096 6.11746C87.9795 5.62629 88.1668 5.65086 88.6854 5.75669C88.5115 5.82187 88.3375 5.88876 88.1636 5.95431C88.192 6.21969 88.2202 6.485 88.2475 6.74877C89.8517 5.70407 89.4775 7.34288 88.1327 7.7168C88.0167 7.22666 87.8965 6.73691 87.7816 6.24354C87.0047 6.99147 86.6392 6.34534 85.7605 6.18825C85.6561 6.17026 85.2757 6.4576 85.1121 6.47228C85.1149 6.47419 85.1176 6.4761 85.1203 6.478C85.0185 6.94948 85.1564 7.16591 85.1728 7.58667C85.0842 7.64013 84.9955 7.69345 84.9069 7.74705C84.709 7.42727 84.7785 7.1624 84.3891 7.24129C84.4416 7.5618 84.4934 7.88215 84.5459 8.20217C84.1192 8.21807 83.8399 7.87121 83.4427 8.02601C83.5094 7.90346 83.5753 7.78069 83.6421 7.65838C82.7776 7.3536 83.4656 5.45178 82.8123 6.3981C82.7708 6.23237 82.7303 6.06493 82.6887 5.89901C82.9578 5.85844 83.2271 5.81927 83.4952 5.77901C83.5006 5.54514 83.5065 5.31228 83.5109 5.07844C83.2231 5.14713 82.9339 5.21831 82.6461 5.28761C82.8562 5.13082 83.0676 4.97431 83.2776 4.81847C82.9439 4.70432 82.6102 4.58958 82.2764 4.47442C82.6308 5.34115 82.1714 5.44454 82.2578 6.30174C81.6669 5.59014 81.2027 4.6408 80.2869 5.24324C80.1053 5.36331 80.2039 5.96895 79.6886 5.23103C79.8133 6.19405 79.1677 6.64738 79.2507 7.56566C79.4301 7.52027 79.6161 7.49131 79.79 7.43617C79.592 7.11977 79.5591 6.2442 79.86 5.9851C80.2441 5.6554 80.8042 6.25949 80.7813 5.29355C80.9345 5.33945 81.0769 5.36664 81.2257 5.40528C81.1644 5.64423 81.1044 5.88489 81.0443 6.12423C81.4676 5.74905 81.7336 5.8723 81.9371 6.4727C81.4327 6.61193 80.9294 6.75062 80.4251 6.89025C80.4994 6.93113 80.5747 6.97227 80.649 7.01165C80.2671 7.63142 80.661 8.21375 79.9487 8.35298C79.953 8.06967 79.9565 7.78619 79.9609 7.50148C79.7015 8.26039 78.9915 8.26421 79.218 9.1359C79.0036 8.87019 78.9599 8.70027 78.8384 9.17372C78.2727 8.51624 77.9093 7.67305 78.1107 6.66486C77.9006 6.82749 77.6904 6.99077 77.4815 7.15421C77.6029 7.42982 77.7245 7.70374 77.8459 7.97853C77.4805 7.96414 77.1123 7.94995 76.7479 7.93678C76.7129 7.11757 77.4514 7.68405 77.2383 6.95402C77.1957 6.80738 76.999 7.12255 76.9474 7.04007C76.4025 6.14609 77.2579 6.79087 77.0972 6.1057C76.2853 5.89416 76.935 4.74204 75.8167 5.70883C75.7871 5.47137 75.7554 5.22904 75.7281 4.99288C75.3399 4.97694 75.3713 5.51417 75.0377 5.61529C74.8287 5.67859 74.5664 4.73158 74.3356 5.37541C74.2944 5.49463 74.6827 6.65085 73.8668 6.60166C73.2335 6.56336 73.4971 5.74249 73.1548 5.45095C72.8123 5.15805 72.0288 6.30013 71.7979 5.00275C71.9773 5.17521 72.2058 5.26845 72.4049 5.40957C72.4859 5.15763 72.5647 4.90861 72.6446 4.65854C72.1894 4.98196 71.7188 4.59555 71.4124 5.19744C70.8051 4.27217 70.1259 5.1264 70.3098 6.1729C70.5097 6.02218 70.2922 5.56655 70.5698 5.85704C70.5983 6.10045 70.6283 6.3426 70.6567 6.58587C70.184 6.55725 69.8557 6.5643 70.0713 5.82098C69.998 5.80319 69.9253 5.78544 69.852 5.76763C69.8389 6.30579 69.8273 6.84601 69.8141 7.3843C69.7266 7.44529 69.6387 7.50584 69.5511 7.56692C69.4538 7.44906 69.3563 7.32971 69.2578 7.21015C69.3903 6.35633 69.6158 6.32923 68.8695 5.85155C68.8673 6.14667 68.8641 6.44063 68.8619 6.73576C68.2371 6.36181 68.2206 5.64493 67.4362 5.6706C68.038 4.6437 68.3673 6.46486 68.3651 4.40598C68.5161 4.54189 68.6683 4.67944 68.8193 4.81499C68.8423 4.51695 68.8651 4.21854 68.887 3.92061C68.0762 4.06957 66.7294 6.03797 66.1866 4.72784C66.1209 4.88748 66.0551 5.02628 65.9883 5.19805C65.4565 4.4045 65.2269 6.1835 64.6874 5.15698C64.6317 5.049 64.7482 3.37552 64.046 3.43048C64.0635 3.64858 64.0726 4.0155 64.0868 4.29051C63.9347 4.15611 63.7835 4.01534 63.6325 3.87763C63.6052 4.07903 63.5765 4.28039 63.5492 4.48337C63.8085 4.56265 64.0671 4.64309 64.3264 4.72209C64.111 4.79042 63.8941 4.85894 63.6786 4.92751C63.9597 5.25765 64.0866 5.26105 63.9171 5.78831C63.6731 5.81972 63.4287 5.85311 63.1847 5.88464C63.1596 6.02002 63.1346 6.157 63.1095 6.29243C63.2277 6.69611 63.347 7.09054 63.4652 7.49954C62.8295 7.17188 62.2768 7.15579 61.7887 6.35999C61.7056 6.22554 61.9997 5.69769 61.433 6.1738C61.4243 5.89412 61.4091 5.66699 61.3992 5.4084C60.7055 6.19126 60.4776 5.95878 59.7542 5.38994C60.2226 5.9202 59.8047 5.57515 59.6854 5.85904C59.6037 6.05464 59.9227 6.02578 59.8866 6.23056C59.8505 6.43371 59.436 7.25617 59.7904 7.35409C60.6592 5.67024 60.8959 7.67968 62.0121 6.87028C61.8403 7.08662 61.6672 7.3037 61.4954 7.52054C61.5763 7.66685 61.6488 7.79953 61.7363 7.95474C61.1137 7.62928 61.4165 7.84102 61.1607 8.10091C60.9047 8.36084 60.4393 8.58352 60.1274 8.65658C60.0292 8.67951 60.1328 8.30165 59.9111 8.26755C59.7601 8.24381 59.3475 8.80615 59.2522 8.14599C59.1898 7.71571 59.8528 6.5312 58.9361 6.5349C58.7636 6.1131 59.2031 6.24396 59.2125 6.19315C59.2924 5.69184 58.7289 5.31371 58.4685 5.69696C58.4474 5.73008 58.6531 6.12141 58.4294 6.27504C57.8987 6.64228 57.5922 6.19367 57.2486 5.58454C57.2114 6.29822 56.7648 7.15215 56.2089 6.88886C56.1805 7.0936 56.1534 7.30018 56.125 7.50652C56.2113 7.39793 56.2975 7.29085 56.3839 7.18237C56.478 7.31053 56.5777 7.40372 56.6696 7.55467C56.1106 7.73182 56.0315 8.71828 55.7634 9.08063C54.8461 10.3194 55.4021 7.70572 55.5675 7.25612C55.6868 7.43797 55.8021 7.64089 55.9203 7.83168C55.9072 7.58246 55.8938 7.33131 55.8818 7.08052C54.5086 7.09026 55.6727 5.46181 54.9756 4.99735C54.7962 6.22512 54.2842 6.34497 53.6321 5.56355C53.5599 5.56964 53.4874 5.57116 53.4152 5.57878C53.4032 5.7583 53.4034 6.03272 53.3837 6.15101C52.5981 6.36043 52.4581 4.46162 52.3837 4.28143C52.0533 3.48252 51.7959 4.58619 51.6985 4.59565C51.2882 4.63342 51.169 4.14218 50.7784 4.35227C50.3583 4.57944 50.6455 4.95699 50.5177 5.29426C50.4152 5.56216 50.0838 5.60971 49.9469 5.88765C50.0013 5.66032 50.0617 5.43743 50.116 5.20933C49.6805 4.89905 49.3247 4.59619 48.8302 4.51975C48.2722 6.18505 47.7974 3.37356 47.9899 5.654C48.4583 5.81024 48.7201 6.07007 48.9707 6.65042C48.6633 6.72469 48.3557 6.79709 48.0482 6.87148C47.9586 6.62128 47.8949 6.37738 47.7888 6.12243C47.559 6.65406 47.0264 6.42617 46.8173 6.58226C45.8379 7.31437 46.1409 8.22325 45.247 6.69703C45.8913 6.54794 45.8903 5.80674 46.5292 5.90897C46.3913 5.3798 46.0667 5.48919 46.2767 4.85483C45.6586 5.01057 45.8584 5.57743 45.6178 6.08053C45.4103 6.5143 44.9924 6.53878 45.0161 7.10271C44.9733 6.79268 44.9403 6.49252 44.8977 6.18285C44.4973 6.18598 44.0969 6.18621 43.6965 6.18933C43.8671 5.86539 44.0378 5.54093 44.2084 5.21872C44.0794 5.09634 43.9502 4.9744 43.8213 4.85198C42.8364 5.85932 41.1382 4.01091 41.4095 6.54449C40.9346 6.62524 40.8752 6.30746 40.617 5.82796C40.5886 6.02035 40.5609 6.18037 40.5325 6.3945C40.2262 6.1931 39.991 6.91549 39.7208 6.72775C39.4506 6.54143 39.3835 5.85903 39.3441 7.00607C39.169 6.67706 38.995 6.40374 38.8211 6.09796C38.7161 6.35856 38.6112 6.61616 38.5073 6.87521C38.41 6.79417 38.3125 6.71334 38.215 6.63247C38.1482 6.57702 38.0814 6.52155 38.0146 6.46598C37.9269 7.01355 37.2816 6.7774 36.9971 7.14459C36.727 6.55438 36.7344 4.69769 36.0991 5.03158C36.1155 5.4916 36.1316 5.95033 36.1481 6.41043C36.0025 6.31428 35.8567 6.21851 35.7101 6.12253C35.7014 5.97249 35.6938 5.82245 35.6851 5.67243C35.7595 5.71879 35.8328 5.76494 35.9072 5.81291C35.8427 5.55893 35.7794 5.30622 35.716 5.05245C35.4939 5.42909 35.2715 5.80529 35.0483 6.18077C35.3491 6.46521 35.6501 6.75052 35.951 7.03603C35.5734 7.37279 35.3107 7.03566 34.9824 7.41021C34.6969 6.77574 34.8023 6.41177 34.9183 5.72421C34.8122 5.783 34.7048 5.83972 34.5987 5.89841C34.6687 5.21144 34.4893 4.80268 35.1095 4.85608C35.0669 4.66004 35.0234 4.4732 34.9818 4.26957C34.8801 4.30096 34.8141 4.13562 34.7025 4.21183C34.3983 4.42084 34.1651 5.62647 34.1859 6.04864C34.1971 6.26997 34.497 5.84659 34.485 6.15964C34.4553 6.92357 33.7673 6.57784 34.7597 7.34832C34.4303 7.83334 34.3567 7.4659 33.9935 7.32418C34.0219 7.57832 34.0495 7.83092 34.0768 8.0852C33.9084 7.96692 33.7397 7.84919 33.5713 7.73122C33.8054 6.42735 32.5635 5.94195 33.6815 4.79913C33.3511 4.74231 33.0218 4.68557 32.6925 4.62657C32.7603 4.49283 32.8282 4.36032 32.896 4.22635C33.0448 4.29563 33.1927 4.36395 33.3415 4.43207C33.1665 4.18903 32.9912 3.94804 32.8161 3.7063C32.4025 4.01287 32.2404 4.47779 32.0511 5.05002C32.5324 5.46474 32.3752 4.89581 32.7503 4.77981C32.7371 5.14285 32.7545 5.47669 32.7217 5.85805C32.5279 5.10679 31.8957 5.65561 31.749 5.69186C31.3029 5.80385 31.6527 5.06871 31.3543 5.05492C31.0555 5.04208 30.7032 5.47778 30.4592 4.75654C30.4636 5.16169 30.4831 5.58084 30.5006 5.94989C30.0355 6.08303 30.1283 5.60538 30.0802 5.54369C29.312 4.53254 28.8952 5.39457 28.0165 5.499C28.1281 5.62152 28.2409 5.73243 28.3536 5.84824C27.6907 6.69363 28.1372 6.43334 28.7128 6.71712C28.1733 6.62998 27.8644 7.34692 27.4836 7.55326C27.1028 7.75937 26.4499 7.38266 26.2112 7.09834C26.7572 6.64873 27.3462 6.95355 27.9524 6.83164C27.8835 6.42658 27.8165 6.08433 27.7454 5.6409C27.3767 6.48857 27.163 5.9215 27.0416 5.81104C26.6849 5.48551 26.6961 6.20472 26.4806 5.43257C26.4894 5.69829 26.4958 5.92176 26.5045 6.17007C25.7681 6.05558 24.9738 5.60133 24.4945 6.559C24.4508 5.93509 24.4177 5.33481 24.3674 4.70017C24.0556 5.17323 23.7886 4.69868 23.526 4.81266C23.2645 4.92549 23.364 5.42075 23.0566 5.61336C22.9997 5.64848 22.8812 5.34095 22.7411 5.56941C22.5997 5.80304 22.0781 7.48134 22.0157 6.01285C21.752 6.00611 21.5025 5.95307 21.2443 5.9292C21.4959 5.84698 21.7477 5.76635 21.9982 5.6822C21.7838 5.32809 21.5707 4.97861 21.3562 4.6319C21.3289 4.94617 21.3014 5.26566 21.2752 5.57499C20.6974 5.95834 20.2781 5.45329 19.6949 5.57898C19.5975 5.59936 19.8273 6.20096 19.3952 6.04773C18.963 5.89148 18.6423 4.79628 17.9059 5.234C17.8687 5.25793 17.6507 6.08569 17.387 5.51756C17.3269 5.3898 17.5795 5.1942 17.4418 5.02726C17.3039 4.8602 16.6887 4.73909 16.6406 4.34559C16.6471 4.48574 16.6855 4.62996 16.7041 4.77258C16.5991 4.8429 16.493 4.91284 16.3869 4.98101C16.3771 4.73537 16.3664 4.48955 16.3566 4.24549C15.7526 4.84567 15.4404 5.75526 14.5454 5.46894C14.7971 5.80599 15.0488 6.15135 15.2994 6.50192C15.3683 6.25837 15.4374 6.01189 15.5052 5.7658C15.9177 5.86071 16.3313 5.95801 16.7438 6.05888C16.8116 5.77102 16.8783 5.48266 16.9461 5.19215C17.0555 5.22755 17.1638 5.26209 17.2732 5.29806C17.2459 5.5091 17.2183 5.71865 17.1899 5.92893C17.4065 5.87669 17.6234 5.8226 17.8389 5.76892C17.4001 7.02152 16.6136 5.66734 16.6703 6.69787C16.573 6.5373 16.4755 6.37669 16.3782 6.21703C16.3355 6.71109 16.1375 6.5651 15.7886 6.48501C15.8685 6.72581 15.9567 6.96496 16.03 7.21086C15.6908 6.86146 15.0891 6.88365 14.7379 6.74955C14.5836 6.69125 14.7377 6.35028 14.6918 6.30924C14.4565 6.09919 14.0069 6.68797 13.9128 6.63795C13.3503 6.34635 12.9849 5.27579 12.371 5.98619C13.0046 6.15946 12.6599 6.08557 12.8853 6.48171C12.9559 6.60498 13.7744 6.88355 12.7494 6.74656C12.6293 6.71792 10.7696 5.98752 11.3809 5.44709C11.08 5.62719 10.8444 5.82827 10.5686 6.00853C9.89454 4.63034 10.1278 5.92301 10.3237 6.64168C10.2132 6.64251 10.108 6.64752 9.99424 6.64509C10.2361 5.89634 9.00402 5.86813 8.58602 6.2217C8.44597 6.3376 8.83759 6.57076 8.51371 6.67027C8.35949 6.61715 8.18453 6.55014 8.02156 6.49328C8.25791 6.93629 7.79407 7.08927 7.80056 7.52567C7.50405 7.11282 7.27724 6.30181 7.4402 5.85979C7.19514 6.04106 6.94879 6.21632 6.70373 6.38664C6.81752 6.48745 6.9328 6.589 7.0466 6.69294C6.2456 6.41723 5.21569 6.94678 5.04827 6.13417C4.94213 6.13952 4.83486 6.14399 4.72872 6.14914C4.69589 6.28302 4.66417 6.41644 4.63134 6.54887C4.15108 6.4203 3.6719 6.3 3.19163 6.19001C3.61926 6.11838 3.72106 5.9336 4.16951 6.08236C3.9967 5.9328 3.82066 5.78701 3.65113 5.64646C2.97599 6.05132 2.88389 6.27737 1.86738 6.16414C1.82142 6.15518 1.05338 5.87593 1.02711 5.85388C0.906797 5.73526 1.08944 5.55369 1.03586 5.49367C0.887042 5.31837 -0.0172572 4.97863 0.000250856 4.9244C0.221293 4.18925 3.26383 3.65493 4.08671 3.49227C12.6218 1.51585 20.9689 1.66383 29.4504 1.21571C29.5376 1.20887 29.4995 0.930035 29.5367 0.916569C29.7676 0.836712 29.9943 1.26645 30.0796 1.28186C30.2619 1.31297 30.1615 0.910842 30.2948 0.905746C31.6713 0.860222 32.9703 1.06869 34.348 0.97475C34.4377 0.968622 34.3461 1.30172 34.5037 1.24064C34.585 1.20736 34.8396 0.694082 35.0232 0.683563C35.6644 0.647863 36.203 0.805924 36.8793 0.794028C37.2484 0.787057 37.8018 0.828586 38.215 0.821175C38.2158 0.821159 38.2167 0.821144 38.2175 0.821128C38.4002 0.817829 38.5905 0.583632 38.7709 0.575859C39.027 0.565076 38.9747 1.03987 39.0141 1.06938C39.1869 1.19826 39.2109 0.677146 39.375 0.689643C39.6803 0.714676 39.6967 1.06259 40.0841 1.03344C40.3609 1.01193 40.9945 0.738029 41.3436 0.657943C42.1599 1.0626 43.1885 0.90459 43.9501 0.773571C44.4009 0.695905 44.4427 1.18234 44.6265 1.18132C45.2742 1.17377 45.7658 0.554908 46.3741 0.537484C47.1815 0.514858 47.897 0.928054 48.6792 0.961354C48.806 0.966629 48.7769 0.52248 48.9013 0.511798C49.362 0.472688 49.9511 0.39565 50.3615 0.461558C50.8188 0.534096 50.9875 1.17802 51.435 1.0499C51.5662 1.01188 51.6046 0.448847 51.8245 0.378203C52.1757 0.267219 52.5608 0.766392 52.8059 0.823454C53.1418 0.899697 52.8497 0.324674 53.3027 0.405169C53.3213 0.408646 53.3891 0.818385 53.4864 0.799599C53.7698 0.74653 53.7416 0.42425 54.1564 0.458499C54.1961 0.463139 54.746 0.857037 54.8007 0.858987C55.1224 0.867812 55.7701 1.00937 55.9605 0.928489C56.6411 0.640951 56.1053 0.0242167 56.6842 1.35828C56.939 1.03522 57.1918 0.708197 57.462 0.395451C57.2817 0.688074 58.0135 1.11978 58.065 1.09273C58.4904 0.875972 58.237 0.35807 58.7764 0.449278C58.064 1.63164 59.4723 0.609518 59.7863 0.583517C61.2985 0.454181 62.6731 0.76689 64.1929 0.77936C64.7017 0.782977 65.3835 0.544863 65.9218 0.559125C66.0473 0.561367 65.9525 0.83672 66.063 0.844287C66.1731 0.849979 66.0509 0.537591 66.1767 0.555926C66.959 0.676158 67.572 1.26756 68.2887 0.55072C68.3236 0.656536 68.3225 0.73968 68.3803 0.856157C68.9668 0.214214 70.0963 1.10851 70.5209 1.23357C71.1849 1.42941 71.3545 0.995333 71.837 1.09168C72.4749 1.22053 73.4327 2.08364 73.0049 0.676797C73.4426 0.64117 73.8638 0.637546 74.3059 0.775715C74.3551 0.791355 74.3211 1.14485 74.3408 1.15249C74.4655 1.20554 74.5062 0.889374 74.5904 0.876468C74.8188 0.841679 74.4461 1.21393 74.7718 1.11399C74.9436 1.06044 75.0411 0.786352 75.5182 0.790162C78.3939 0.817585 81.5158 0.985129 84.4637 1.10107C84.6662 1.10879 84.5329 0.777665 84.7867 0.805153C85.6687 0.901784 87.2474 1.48723 88.0079 1.43114C88.7683 1.37619 88.5967 0.902358 89.0726 0.720054C89.1645 0.684645 89.0892 0.949265 89.1723 0.955703C89.7315 0.996498 90.3981 1.42883 90.8511 1.50228C91.1507 1.5516 91.1267 1.13595 91.3345 1.11239C91.6442 1.07863 91.9629 1.50526 92.1282 1.52286C92.9049 1.60197 93.439 1.28391 94.1644 1.4745C94.136 1.38401 94.1173 1.30042 94.0932 1.21131C94.9521 1.25186 95.81 1.29278 96.6689 1.33404C96.6284 1.25216 96.5892 1.16956 96.5487 1.08626C97.5565 1.16418 97.4415 2.02946 97.3529 0.190179C97.4261 0.128383 97.5039 0.056591 97.5738 4.57764e-05C97.5454 0.94456 98.155 1.65555 98.9308 1.91529C98.9876 1.93422 99.3694 1.03607 99.3279 2.10982C99.4274 1.84965 99.4868 1.67038 99.571 1.44244C99.7351 1.77273 99.9014 2.09812 100.065 2.42489C100.154 2.37897 100.244 2.33485 100.333 2.28912C100.346 2.08035 100.336 1.86289 100.364 1.65848C100.775 1.64038 101.619 1.924 101.944 1.90749C102.752 1.86449 103.574 1.34291 104.202 1.95818C104.508 1.90779 104.204 1.49922 104.659 1.56587C104.711 1.76881 104.759 1.96307 104.813 2.17171C105.184 1.28696 105.262 1.83693 105.772 2.03918C106.117 2.17667 106.342 1.96712 106.67 2.02067C106.754 2.03437 106.742 2.2932 106.799 2.28656C106.989 2.2654 107.533 1.92851 107.668 1.92417C108.886 1.87432 109.934 1.95415 111.094 2.08845C111.219 2.10237 111.058 1.85012 111.187 1.86555C111.394 1.89003 111.272 2.26293 111.392 2.28574C111.728 2.34691 111.731 1.95009 112.199 1.94798C113.741 1.94245 115.513 2.3039 117.124 2.39015C117.174 2.39211 117.171 2.17196 117.226 2.17207C117.583 2.17659 117.944 2.48673 118.267 2.49573C118.805 2.51185 119.208 2.22552 119.739 2.25008C120.777 2.29663 121.703 2.48793 122.77 2.54125C123.643 2.58581 124.402 2.59168 125.359 2.63535C129.541 2.80772 133.809 2.4685 138.02 2.99791C138.127 3.0112 138.083 3.15401 138.116 3.14946C138.427 3.10285 138.454 2.91081 138.565 3.32346C138.961 3.26283 139.086 2.96712 139.564 3.0165C139.819 3.04256 139.628 3.49497 140.06 3.27932C140.449 3.08555 140.019 2.81248 141.177 3.13436C141.207 3.14333 141.358 3.42572 141.599 3.36727C141.841 3.31053 141.561 3.09916 142.143 3.07607C143.51 3.02688 145.24 3.35879 146.828 3.38985C146.928 3.3913 147.887 3.32471 148.076 3.28041C148.442 3.19268 148.366 3.0133 148.842 3.00754C149.209 3.00412 149.513 3.21945 149.945 3.21299C149.995 3.212 150.08 3.02391 150.405 3.07566ZM69.8532 7.85148C69.7635 8.29998 69.6015 9.95325 69.059 9.45633C69.0076 9.40918 69.2852 8.26966 68.9855 8.09062C69.2788 7.96874 69.5643 7.92826 69.8532 7.84974C69.8532 7.85032 69.8532 7.8509 69.8532 7.85148ZM152.756 7.42022C152.35 7.40347 151.943 7.38584 151.537 7.36664C151.817 7.27494 152.098 7.18525 152.377 7.09674C152.504 7.20572 152.629 7.3137 152.756 7.42022ZM102.22 8.30493C102.22 8.30493 102.221 8.30492 102.221 8.30491C101.795 8.49214 101.368 8.68138 100.941 8.87189C100.986 8.7372 101.031 8.60207 101.075 8.46764C101.412 8.25118 101.75 8.03652 102.085 7.82315C102.13 7.98393 102.175 8.14448 102.22 8.30493ZM105.592 6.88022C105.864 7.03165 105.797 7.29032 105.947 7.53992C105.947 7.53944 105.947 7.53897 105.947 7.53849C105.987 7.60345 106.171 7.6582 106.242 7.66699C106.216 7.50631 106.182 7.34767 106.154 7.18799C106.79 6.79831 108.033 8.14787 106.423 8.73686C106.447 8.53327 106.47 8.33085 106.494 8.12749C105.694 8.20034 104.803 7.76534 105.592 6.88022ZM63.4215 8.61213C62.7386 9.44458 62.5197 9.6235 61.6914 9.05949C61.8084 8.82302 61.9254 8.58677 62.0424 8.35068C62.1792 8.59012 62.3149 8.82768 62.4517 9.06664C62.4521 9.06664 62.4525 9.06663 62.4529 9.06663C62.4803 8.81444 62.5077 8.56186 62.534 8.30978C62.8294 8.41078 63.126 8.51163 63.4215 8.61213ZM131.729 7.03244C131.919 8.02455 131.865 7.44588 131.321 7.68418C131.133 7.7674 131.316 7.93824 131.199 7.97071C130.567 8.15047 130.516 7.47157 130.657 7.11609C131.015 7.08656 131.377 7.05941 131.728 7.03246C131.728 7.03245 131.729 7.03245 131.729 7.03244ZM148.134 6.61854C148.134 6.61853 148.135 6.61853 148.135 6.61852C148.151 6.79481 147.897 6.84825 148.184 7.00961C147.965 7.01404 147.747 7.01769 147.527 7.02209C147.591 7.00388 147.657 6.98648 147.722 6.96841C147.665 6.90828 147.608 6.84711 147.551 6.78647C147.473 6.99421 147.401 6.87626 147.171 6.81061C147.235 7.0319 147.298 7.25234 147.361 7.4716C147.094 7.41467 146.826 7.35623 146.559 7.2967C146.556 7.23993 146.553 7.18306 146.55 7.12626C146.449 7.20145 146.349 7.27791 146.249 7.35411C146.221 7.28654 146.195 7.21945 146.168 7.15163C146.046 7.20656 145.925 7.26189 145.803 7.31838C145.766 7.15186 146.034 7.07319 145.559 7.12709C145.705 6.95098 145.85 6.77709 145.997 6.60436C146.709 6.60944 147.422 6.61438 148.134 6.61854ZM126.784 7.43235C127.568 7.37383 127.347 7.54419 127.166 8.07572C127.039 7.86235 126.911 7.64797 126.784 7.43235ZM86.3635 7.33721C86.1359 7.85115 85.9073 8.36177 85.6743 8.86129C85.2103 9.15593 84.7462 8.22096 85.0952 7.84877C85.5154 7.40381 85.9542 7.89317 86.3635 7.33721ZM75.7963 7.63799C76.3639 7.88338 75.8298 8.52448 75.7018 8.89866C75.5448 8.30199 75.3258 8.3564 74.9741 8.28967C75.3044 8.24768 75.7024 7.59602 75.7963 7.63628C75.7963 7.63685 75.7963 7.63742 75.7963 7.63799ZM95.4985 7.81791C95.726 7.80068 95.9523 7.66303 96.1557 7.82504C96.0944 8.28855 95.6875 7.87304 95.9784 8.55572C95.8329 8.56984 95.6873 8.58363 95.5429 8.59909C95.6346 8.31231 95.5112 8.10096 95.4991 7.81945C95.4989 7.81894 95.4988 7.81842 95.4985 7.81791ZM119.182 8.01285C118.736 7.57319 118.651 7.76455 118.202 8.08889C118.138 7.71986 118.674 7.09378 119.01 6.95664C119.067 7.30931 119.124 7.66156 119.182 8.01285ZM13.5821 7.95898C13.6893 7.46599 14.4802 7.42479 14.8732 7.59369C14.8264 7.66879 14.7794 7.74461 14.7326 7.82029C14.3496 7.86901 13.9651 7.91529 13.5821 7.95898ZM74.8067 8.2482C74.8656 8.26627 74.9214 8.27966 74.9741 8.28967C74.9155 8.29705 74.859 8.28674 74.8067 8.2482ZM51.0367 5.4646C51.2237 4.83188 50.6678 4.61842 51.3428 4.86737C51.3428 4.86677 51.3428 4.86616 51.3428 4.86556C51.7893 5.02941 51.8878 5.07304 52.3015 5.12279C52.1526 5.93419 51.3134 6.22517 52.47 6.39229C52.4852 6.39303 52.4549 5.91008 52.6397 5.97617C52.6967 5.99672 52.8793 6.39293 53.1569 6.50791C53.2466 6.54476 53.9209 6.66622 53.0018 6.67471C53.0292 7.24 52.9798 7.8123 52.982 8.36077C52.6232 8.52153 52.3475 7.41451 51.9679 7.4422C51.4044 7.48605 51.1176 8.60918 51.0093 7.13686C51.4832 6.77443 52.2968 6.7655 52.4029 7.64903C52.8614 7.65865 52.993 6.93502 52.6234 6.57714C51.04 7.03373 52.1887 5.50159 50.8023 6.08044C50.7859 6.28528 50.7289 6.50578 50.7376 6.69833C50.3144 5.97748 50.97 5.6908 51.0367 5.4646ZM54.3476 7.02611C54.0741 7.45734 53.8014 7.89256 53.5289 8.32636C53.5289 7.62331 53.6792 6.99195 54.1103 6.59592C54.189 6.73991 54.2689 6.88375 54.3476 7.02611ZM31.3356 7.2014C31.2962 7.57987 31.1912 7.92572 31.1146 8.2846C31.0315 7.96329 29.0618 7.63718 30.0638 7.33777C30.2094 7.29269 31.0971 7.97032 31.3356 7.2014ZM122.282 7.55738C122.05 7.38943 121.819 7.21973 121.588 7.04887C121.944 6.93462 122.299 6.81887 122.655 6.70536C122.53 6.98803 122.407 7.27217 122.282 7.55738ZM82.5872 6.74613C82.6852 6.75883 82.3598 7.24225 82.7458 7.16435C82.4581 7.47377 82.1886 7.73687 81.9073 8.03013C81.8231 7.80223 81.7379 7.575 81.6537 7.34657C81.588 7.49391 81.5211 7.64051 81.4554 7.78812C81.4948 7.45402 81.5299 7.12791 81.5715 6.7885C82.0453 7.50139 82.1539 6.6906 82.5872 6.74613ZM96.6758 5.49437C96.7611 6.16042 96.075 6.55983 96.7499 6.66406C96.6219 7.10241 96.416 7.33427 96.021 7.37691C95.9576 7.20918 95.8943 7.04247 95.8309 6.87432C95.8222 7.32523 95.7205 7.49338 95.4985 7.81791C95.4983 7.8174 95.4982 7.81688 95.498 7.81637C94.8974 7.85591 94.9333 7.70482 94.7889 6.95971C95.4247 7.3764 95.4436 6.69518 95.877 6.29217C96.1746 6.01523 96.5632 6.13998 96.6758 5.49437ZM33.4342 7.2045C32.9847 7.86748 33.3881 8.48913 32.5905 7.77724C32.6419 7.60922 32.6936 7.4425 32.745 7.27422C32.9747 7.24949 33.2045 7.22647 33.4342 7.2045ZM98.8946 7.75415C98.8432 6.73924 98.4199 5.94475 98.3476 7.60594C98.7602 7.93885 98.5587 7.00297 98.8946 7.75415ZM75.9899 5.83793C76.7831 5.89286 76.6332 7.1843 76.3071 7.83433C76.2568 7.59909 76.2065 7.3633 76.1572 7.12923C76.0183 7.23681 75.8793 7.34478 75.7403 7.45126C75.8235 6.91345 75.9067 6.3747 75.9899 5.83793ZM112.879 6.57465C112.273 7.22672 113.534 6.9284 113.11 7.33542C112.772 7.66299 112.327 7.01487 112.495 6.60287C112.612 6.59082 112.743 6.58217 112.878 6.57465C112.879 6.57465 112.879 6.57465 112.879 6.57465ZM109.371 6.7827C109.471 7.49587 109.327 7.28862 109.806 7.15585C109.943 7.11849 111.03 7.37294 110.574 6.79212C110.185 6.79472 109.775 6.78719 109.371 6.7827ZM66.8204 7.15335C66.8131 6.75911 67.6501 5.89547 67.7575 6.11146C67.7575 6.11088 67.7575 6.11029 67.7575 6.10971C68.0475 6.69684 67.1646 6.78235 67.5476 7.58833C66.6996 6.88058 66.4459 8.60338 66.505 6.33355C67.0045 6.2337 66.768 6.70134 66.8204 7.15335ZM3.19805 6.36409C3.19766 6.36408 3.19727 6.36408 3.19688 6.36407C3.25308 6.37214 3.71619 6.67623 3.65987 6.77791C3.10296 6.66531 3.20221 6.49132 2.68374 6.77008C2.65532 6.6725 2.63096 6.57846 2.60036 6.48116C2.80607 6.43046 2.92011 6.31442 3.19805 6.36409ZM29.2061 6.38751C29.4107 6.28424 29.7841 6.71509 30.0172 6.69093C29.2753 8.33704 28.3888 6.7916 29.2061 6.38751ZM140.461 6.74894C140.461 6.74926 140.46 6.74957 140.46 6.74989C140.46 6.74942 140.46 6.74897 140.46 6.7485C140.46 6.74865 140.461 6.7488 140.461 6.74894ZM45.0627 7.41872C45.0363 7.30835 45.0214 7.21246 45.0161 7.12828C45.0161 7.12037 45.0161 7.11245 45.0161 7.10453C45.0303 7.20789 45.0455 7.31243 45.0627 7.41872ZM65.081 7.27789C64.7324 6.72646 65.8938 5.84931 66.2694 6.05879C66.2431 6.30974 66.239 6.53723 66.1778 6.82564C65.8747 6.1756 65.139 7.37 65.081 7.27789ZM91.5602 6.96963C90.6421 6.95914 91.8369 5.00636 91.8862 6.561C91.8843 6.59093 91.5839 6.96669 91.5602 6.96963ZM72.3209 7.02837C72.5548 6.38294 72.0848 6.21241 72.8364 6.32306C72.8801 6.4898 72.9239 6.65685 72.9676 6.82343C72.7521 6.89129 72.5364 6.96022 72.3209 7.02837ZM85.546 4.35452C84.3905 4.68245 83.2854 5.28767 84.038 6.9829C84.1255 6.92807 84.2141 6.8751 84.3016 6.82041C84.3147 5.99446 84.6374 6.44516 85.1098 6.47065C85.1771 6.14392 85.4391 6.06848 85.4882 5.79159C85.5833 5.25675 85.2823 4.8783 85.546 4.35452ZM134.329 5.82934C134.31 5.91718 134.292 6.00557 134.273 6.0927C134.091 6.19211 133.907 6.29192 133.725 6.3931C133.754 6.22257 133.784 6.05229 133.813 5.88224C133.985 5.86432 134.156 5.84643 134.328 5.82882C134.328 5.82899 134.328 5.82916 134.329 5.82934ZM55.4736 5.11374C55.3687 6.8154 55.7354 6.50069 56.4795 5.64244C56.1447 5.4665 55.8084 5.29026 55.4736 5.11374ZM104.113 5.10076C104.138 5.48999 104.161 5.8778 104.186 6.26657C104.581 5.86106 104.508 5.41887 104.319 4.90288C104.25 4.96859 104.182 5.03484 104.113 5.10076ZM109.803 4.98805C109.64 4.90903 109.723 5.2095 109.706 5.20331C109.291 5.04272 109.233 4.90283 108.724 5.12587C108.662 5.20476 108.6 5.28788 108.538 5.36941C108.773 6.15563 108.944 5.72882 109.442 6.18765C109.352 5.92037 109.263 5.65208 109.173 5.38234C109.45 5.44067 109.726 5.49781 110.002 5.55532C110.035 5.47344 110.068 5.39238 110.101 5.31064C110.002 5.20463 109.901 5.08523 109.803 4.98805ZM136.442 6.07879C136.711 6.10056 136.981 6.12288 137.251 6.14403C137.26 6.00901 137.27 5.87314 137.28 5.73825C137.001 5.85005 136.721 5.96364 136.442 6.07879ZM49.9469 5.88765C49.9255 5.97681 49.9047 6.06653 49.8862 6.15777C49.888 6.04657 49.9113 5.95976 49.9469 5.88765ZM2.48781 5.72079C2.18257 5.64833 1.74271 5.7125 1.40789 5.70496C1.43421 5.97023 2.2852 5.88502 2.58403 6.05929C2.63205 6.00737 2.61684 5.75122 2.48781 5.72079ZM77.0873 5.89073C77.1639 5.59689 77.2404 5.30471 77.3159 5.0114C77.5008 5.04385 77.6861 5.078 77.8722 5.11032C77.8777 4.87048 77.883 4.62858 77.8885 4.38878C77.0691 4.69528 77.258 4.00434 76.8523 3.31527C76.9311 4.17406 77.0086 5.03209 77.0873 5.89073ZM145.007 5.32392C144.415 5.39384 144.205 5.54674 144.538 5.90852C144.747 5.8267 144.958 5.74595 145.166 5.66641C145.113 5.55268 145.059 5.43843 145.007 5.32392ZM39.1657 5.30061C38.6833 5.58356 38.6628 4.60128 38.215 5.08774C38.2029 5.10085 38.1906 5.11502 38.1779 5.1303C38.1903 5.13949 38.2026 5.14868 38.215 5.15788C38.4619 5.34133 38.7087 5.52655 38.9546 5.70981C39.0243 5.57374 39.0959 5.43669 39.1657 5.30061ZM63.4617 2.54422C63.2527 2.18952 62.862 3.86304 62.2745 2.62047C62.1345 2.98914 62.0467 3.34194 61.9263 3.70381C61.8563 3.30909 61.7768 2.90906 61.71 2.517C61.7096 2.517 61.7092 2.51699 61.7088 2.51699C61.1759 2.64576 61.5215 3.14375 61.5094 3.56242C61.5038 3.73607 61.1083 3.44347 61.2319 3.82233C61.4452 4.47244 62.2425 4.10277 62.2447 4.89239C61.9646 4.63343 61.4176 4.84758 61.5794 5.37568C61.7567 5.95467 62.2721 4.98591 62.6004 5.46627C62.13 4.20369 63.1016 4.59716 63.2121 5.56398C63.7822 4.82269 63.2582 4.51895 62.6739 4.55115C63.0306 3.81069 62.5055 4.20942 62.4191 3.59172C62.7869 3.22129 64.0492 3.54043 63.4617 2.54422ZM90.3584 4.12864C89.9644 4.16779 89.3488 3.77799 89.079 4.34032C88.9219 4.66878 89.5389 4.92719 89.1134 5.44195C89.4974 5.39277 89.585 5.19192 89.5193 4.73936C89.6068 4.68572 89.6954 4.6335 89.7829 4.58137C89.8233 4.6698 89.8649 4.75701 89.9053 4.84532C89.9513 4.66 89.9975 4.47631 90.0423 4.29127C90.1353 4.32873 90.2293 4.3662 90.3222 4.4049C90.3332 4.31188 90.3518 4.23104 90.3584 4.12864ZM24.9418 5.38775C25.0512 5.3811 25.1595 5.37448 25.2689 5.36637C25.2569 5.24962 25.2425 5.12811 25.2287 5.00825C25.2188 4.91353 25.2088 4.81884 25.1989 4.72418C25.2623 5.06057 25.7835 5.62294 26.003 5.25673C26.1134 5.07194 25.8622 4.42613 26.3302 4.30336C25.991 4.34345 25.6769 4.4381 25.3476 4.49894C25.3772 4.30655 25.4056 4.11194 25.4351 3.91916C25.4349 3.91888 25.4347 3.9186 25.4345 3.91832C25.3251 3.87778 25.2144 3.83541 25.105 3.79528C25.0503 4.32748 24.9965 4.85765 24.9418 5.38775ZM103.793 4.32709C103.42 4.64437 103.295 4.81248 103.471 5.3361C103.471 5.33635 103.472 5.3366 103.472 5.33684C103.611 5.10616 103.75 4.87631 103.889 4.64714C103.857 4.54067 103.826 4.43374 103.793 4.32709ZM46.7327 3.73219C45.9394 6.21129 47.726 4.69264 47.3858 3.84837C47.3705 3.80965 46.8071 4.00614 46.7327 3.73219ZM75.8441 5.12399C76.0619 5.10595 76.2801 5.08979 76.4989 5.07186C76.4486 4.78716 76.3971 4.50328 76.3468 4.21824C76.1793 4.51905 76.0115 4.82199 75.8441 5.12399ZM142.429 4.73584C142.2 4.40027 141.612 4.25421 141.324 4.61313C141.475 4.66046 141.626 4.70747 141.777 4.75404C141.492 4.78834 141.21 4.82775 140.922 4.86119C140.907 5.33513 141.238 5.06663 141.737 5.20507C141.814 5.22898 142.308 5.80802 142.479 5.37888C142.513 5.29156 141.988 5.22127 142.353 4.97053C142.193 4.94666 142.055 4.94802 141.904 4.93323C141.894 4.82221 141.883 4.71099 141.871 4.59979C142.057 4.64543 142.243 4.69108 142.429 4.73584ZM88.0644 4.16931C87.5232 4.11732 87.4564 4.45275 87.3437 5.04699C87.5954 4.981 87.8472 4.91632 88.0988 4.8509C88.0868 4.62421 88.0764 4.39744 88.0644 4.16931ZM137.592 4.49167C137.296 4.42488 137.422 4.71943 137.303 4.77204C136.852 4.97135 136.545 4.75491 136.1 4.87829C136.129 4.82142 136.156 4.76834 136.185 4.7133C136.184 4.7133 136.184 4.71329 136.184 4.71328C134.075 4.40922 135.183 5.12369 136.444 5.03194C136.474 5.14252 136.502 5.25305 136.532 5.36246C137.096 5.17694 137.617 5.00524 137.592 4.49167ZM53.7808 3.66692C53.7568 3.54097 53.9614 2.74226 53.5773 3.11492C53.2732 4.2817 53.772 3.70385 53.8969 4.1532C53.7929 4.2649 53.6866 4.37361 53.5837 4.48542C54.2053 4.81668 54.296 4.53952 54.0695 3.68606C54.0533 3.62867 53.805 3.79242 53.7808 3.66692ZM49.6961 3.07558C49.6108 4.80478 50.3952 4.02864 50.3667 3.49238C50.2584 3.47065 50.1742 3.76306 50.0594 3.63333C49.9434 3.50351 49.9138 3.09958 49.6961 3.07558ZM72.1687 3.62394C72.1458 3.61655 71.9149 2.92267 71.9378 3.46442C72.2234 4.7483 72.7989 3.92689 72.6982 3.48156C72.5079 3.50183 72.381 3.69283 72.1687 3.62221C72.1687 3.62279 72.1687 3.62337 72.1687 3.62394ZM145.999 4.6511C145.988 4.62953 145.412 4.47683 145.338 4.59816C145.277 4.7358 145.246 4.88488 145.2 5.02879C145.518 4.90206 146.16 5.02017 145.998 4.65107C145.998 4.65108 145.999 4.65109 145.999 4.6511Z" fill="#4EC9B0"/>
</svg>
