<svg width="60" height="54" viewBox="0 0 60 54" fill="none" xmlns="http://www.w3.org/2000/svg">
<path d="M30 18.0001V30.0001M6.94156 36.5995C4.18997 41.325 2.81458 43.6887 3.02009 45.6275C3.19936 47.3186 4.09451 48.855 5.48194 49.8545C7.07206 51 9.82194 51 15.3214 51H44.6786C50.1781 51 52.9275 51 54.5176 49.8545C55.9051 48.855 56.8006 47.3186 56.9799 45.6275C57.1854 43.6887 55.8104 41.325 53.0588 36.5995L38.3854 11.3996C35.6338 6.67403 34.2574 4.31166 32.4613 3.51873C30.8946 2.82709 29.1044 2.82709 27.5377 3.51873C25.7423 4.31133 24.3667 6.67371 21.6174 11.3953L6.94156 36.5995ZM30.1536 39V39.3L29.8493 39.3006V39H30.1536Z" stroke="#CA8F76" stroke-width="6" stroke-linecap="round" stroke-linejoin="round"/>
</svg>
