<svg width="36" height="36" viewBox="0 0 36 36" fill="none" xmlns="http://www.w3.org/2000/svg">
<path d="M12.7686 12.635C13.0817 11.6701 13.6553 10.8114 14.4264 10.1524C15.1976 9.49335 16.137 9.06026 17.1388 8.90131C18.1407 8.74235 19.1664 8.8634 20.1037 9.25138C21.041 9.63937 21.8527 10.2794 22.4491 11.0999C23.0455 11.9205 23.4026 12.8897 23.4823 13.901C23.5621 14.9122 23.3604 15.9261 22.8999 16.83C22.4395 17.7339 21.7388 18.4922 20.8739 19.0223C20.009 19.5524 19.0144 19.8329 18 19.8329V21.6671M18 34.5C8.8873 34.5 1.5 27.1127 1.5 18C1.5 8.8873 8.8873 1.5 18 1.5C27.1127 1.5 34.5 8.8873 34.5 18C34.5 27.1127 27.1127 34.5 18 34.5ZM18.0913 27.1667V27.35L17.9087 27.3504V27.1667H18.0913Z" stroke="#B6B6B6" stroke-width="3" stroke-linecap="round" stroke-linejoin="round"/>
</svg>
